<svg id="Capa_1" enable-background="new 0 0 512 512" height="512" viewBox="0 0 512 512" width="512" xmlns="http://www.w3.org/2000/svg"><g><g><path d="m512 106.89v365.11h-512v-333.3l236.86-20 14.25-30z" fill="#f0f9ff"/><path d="m512 106.89v365.11h-256.45v-383.3z" fill="#c3e0ed"/><path d="m255.55 0 13.89 53.445-13.89 53.445-21.11 31.81h-234.44v-138.7z" fill="#5f55ae"/><g><path d="m44.261 53.348h30v30h-30z" fill="#ff5b5b"/><path d="m104.272 53.348h30v30h-30z" fill="#ffe377"/><path d="m164.284 53.348h30v30h-30z" fill="#f0f9ff"/></g><path d="m255.55 0h256.45v106.89h-256.45z" fill="#453d82"/></g><g><ellipse cx="255.55" cy="359.65" fill="#ffe377" rx="137.35" ry="137.35" transform="matrix(.707 -.707 .707 .707 -179.462 286.04)"/><g fill="#ffb555"><path d="m392.9 359.65c0 75.86-61.49 137.35-137.35 137.35v-274.7c75.86 0 137.35 61.5 137.35 137.35z"/><path d="m255.55 207.3c-84 0-152.35 68.35-152.35 152.35 0 84.01 68.35 152.35 152.35 152.35s152.35-68.34 152.35-152.35c0-84-68.35-152.35-152.35-152.35zm0 274.7c-67.46 0-122.35-54.88-122.35-122.35 0-67.46 54.89-122.35 122.35-122.35s122.35 54.89 122.35 122.35c0 67.47-54.89 122.35-122.35 122.35z"/><path d="m300.55 389.65c0 19.56-12.54 36.24-30 42.43v23.4h-30v-23.39c-11.65-4.11-21.33-12.94-26.38-24.73l27.58-11.81c2.37 5.53 7.79 9.1 13.8 9.1 8.27 0 15-6.73 15-15s-6.73-15-15-15c-24.81 0-45-20.18-45-45 0-19.55 12.54-36.24 30-42.43v-23.39h30v23.39c11.65 4.11 21.33 12.93 26.38 24.72l-27.58 11.82c-2.37-5.53-7.79-9.11-13.8-9.11-8.27 0-15 6.73-15 15s6.73 15 15 15c24.81 0 45 20.19 45 45z"/></g><g><g fill="#ff9000"><path d="m300.55 389.65c0 19.56-12.54 36.24-30 42.43v23.4h-15v-50.83c8.27 0 15-6.73 15-15s-6.73-15-15-15v-30c24.81 0 45 20.19 45 45z"/><path d="m255.55 314.65v-50.82h15v23.39c11.65 4.11 21.33 12.93 26.38 24.72l-27.58 11.82c-2.37-5.53-7.79-9.11-13.8-9.11z"/></g></g><path d="m407.9 359.65c0 84.01-68.35 152.35-152.35 152.35v-30c67.46 0 122.35-54.88 122.35-122.35 0-67.46-54.89-122.35-122.35-122.35v-30c84 0 152.35 68.35 152.35 152.35z" fill="#ff9000"/></g></g></svg>