<svg id="Capa_1" enable-background="new 0 0 512 512" height="512" viewBox="0 0 512 512" width="512" xmlns="http://www.w3.org/2000/svg"><g><g><g><path d="m497 0h-482c-8.284 0-15 6.721-15 15.012v91.379c0 8.291 6.716 15.012 15 15.012h482c8.284 0 15-6.721 15-15.012v-91.379c0-8.291-6.716-15.012-15-15.012z" fill="#22cac8"/><path d="m497 0h-241v121.403h241c8.284 0 15-6.721 15-15.012v-91.379c0-8.291-6.716-15.012-15-15.012z" fill="#1daeb3"/><path d="m0 106.391v390.597c0 8.291 6.716 15.012 15 15.012h482c8.284 0 15-6.721 15-15.012v-390.597z" fill="#edf5ff"/><path d="m256 512h241c8.284 0 15-6.721 15-15.012v-390.597h-256z" fill="#d7e9ff"/><g fill="#312e69"><path d="m423.113 257.976h-104.711c-8.284 0-15 6.721-15 15.012s6.716 15.012 15 15.012h104.711c8.284 0 15-6.721 15-15.012s-6.716-15.012-15-15.012z"/><path d="m318.402 215.584h104.711c8.284 0 15-6.721 15-15.012s-6.716-15.012-15-15.012h-104.711c-8.284 0-15 6.721-15 15.012s6.716 15.012 15 15.012z"/><path d="m423.113 330.391h-104.711c-8.284 0-15 6.721-15 15.012s6.716 15.012 15 15.012h104.711c8.284 0 15-6.721 15-15.012 0-8.29-6.716-15.012-15-15.012z"/></g><path d="m423.113 402.807h-334.226c-8.284 0-15 6.721-15 15.012s6.716 15.012 15 15.012h334.227c8.284 0 15-6.721 15-15.012-.001-8.291-6.717-15.012-15.001-15.012z" fill="#515099"/><path d="m88.887 366.327h152.113c8.284 0 15-6.721 15-15.012v-150.743c0-8.291-6.716-15.012-15-15.012h-152.113c-8.284 0-15 6.721-15 15.012v150.742c0 8.292 6.716 15.013 15 15.013z" fill="#515099"/><path d="m423.113 402.807h-167.113v30.024h167.113c8.284 0 15-6.721 15-15.012s-6.716-15.012-15-15.012z" fill="#312e69"/></g></g><path d="m445.232 68.357c7.846 0 15.363-6.899 15-15-.364-8.127-6.591-15-15-15-7.846 0-15.363 6.899-15 15 .364 8.127 6.591 15 15 15z" fill="#fb3"/><path d="m388.768 68.357c7.846 0 15.363-6.899 15-15-.364-8.127-6.591-15-15-15-7.846 0-15.363 6.899-15 15 .364 8.127 6.591 15 15 15z" fill="#c12058"/></g></svg>