<svg id="Capa_1" enable-background="new 0 0 510 510" height="512" viewBox="0 0 510 510" width="512" xmlns="http://www.w3.org/2000/svg"><g id="XMLID_1648_"><path id="XMLID_1651_" d="m0 0v120l135 15 120-15 15-60-15-60z" fill="#4d5e80"/><path id="XMLID_1659_" d="m510 0h-255v120l120 15 135-15z" fill="#3d4566"/><path id="XMLID_1663_" d="m0 120v390h255l15-210-15-180z" fill="#e7f2ff"/><path id="XMLID_1666_" d="m255 120h255v390h-255z" fill="#d0e8ff"/><g id="XMLID_1667_"><path id="XMLID_1670_" d="m60 45h30v30h-30z" fill="#ff637b"/></g><g id="XMLID_1677_"><g id="XMLID_1673_"><path id="XMLID_1675_" d="m120 45h30v30h-30z" fill="#ffdf40"/></g></g><g id="XMLID_1684_"><g id="XMLID_1682_"><path id="XMLID_1683_" d="m180 45h30v30h-30z" fill="#2de6a8"/></g></g><g fill="#4d5e80"><path id="XMLID_1688_" d="m439.35 339.142-137.715-37.507 37.507 137.715 39.497-39.497 31.821 31.82 21.213-21.213-31.821-31.82z"/><path id="XMLID_1691_" d="m270 240h180v30h-180z"/><path id="XMLID_1694_" d="m270 180h180v30h-180z"/></g><path id="XMLID_1696_" d="m195 270-15 15-15-15v-30h-30v30l-15 15-15-15v-60h90z" fill="#ff637b"/><path id="XMLID_1700_" d="m240 270h-180v120l90 15 90-15z" fill="#8adefd"/><path id="XMLID_1703_" d="m103.833 450h92.334c24.17 0 43.833-19.663 43.833-43.833v-16.167h-180v16.167c0 24.17 19.663 43.833 43.833 43.833z" fill="#50c5ff"/></g></svg>